<svg xmlns="http://www.w3.org/2000/svg" viewBox="0 0 960 540" role="img" aria-labelledby="title desc">
  <title id="title">Map placeholder</title>
  <desc id="desc">A map-style placeholder with layers, route lines and coordinate marks.</desc>
  <rect width="960" height="540" fill="#f6fbf7"/>
  <rect x="80" y="58" width="800" height="424" rx="8" fill="#ffffff" stroke="#cbd5e1" stroke-width="3"/>
  <path d="M110 380c108-88 194-98 258-30s140 74 228 18 166-42 254 42" fill="none" stroke="#2f6f8f" stroke-width="18" stroke-linecap="round"/>
  <path d="M108 188c92-42 178-36 258 18s158 54 234 0 158-66 252-36" fill="none" stroke="#7a591b" stroke-width="10" stroke-linecap="round" stroke-dasharray="20 22"/>
  <circle cx="294" cy="336" r="24" fill="#263445"/>
  <circle cx="604" cy="212" r="24" fill="#263445"/>
  <circle cx="736" cy="396" r="24" fill="#263445"/>
  <rect x="124" y="96" width="190" height="112" rx="6" fill="#ffffff" stroke="#cbd5e1" stroke-width="2"/>
  <rect x="148" y="124" width="118" height="14" rx="7" fill="#94a3b8"/>
  <rect x="148" y="158" width="82" height="14" rx="7" fill="#cbd5e1"/>
  <text x="148" y="194" fill="#7a591b" font-family="Arial, sans-serif" font-size="20" font-weight="700">EPSG:25831</text>
</svg>
