<svg xmlns="http://www.w3.org/2000/svg" viewBox="0 0 960 540" role="img" aria-labelledby="title desc">
  <title id="title">Software screenshot placeholder</title>
  <desc id="desc">A generic software interface placeholder for academic manuals.</desc>
  <rect width="960" height="540" fill="#eef2f7"/>
  <rect x="70" y="64" width="820" height="412" rx="10" fill="#ffffff" stroke="#cbd5e1" stroke-width="3"/>
  <rect x="70" y="64" width="820" height="52" rx="10" fill="#263445"/>
  <circle cx="106" cy="90" r="8" fill="#ff7a7a"/>
  <circle cx="132" cy="90" r="8" fill="#ffd166"/>
  <circle cx="158" cy="90" r="8" fill="#64d68a"/>
  <rect x="104" y="152" width="210" height="282" rx="6" fill="#f8fafc" stroke="#d8dee8"/>
  <rect x="350" y="152" width="496" height="282" rx="6" fill="#eaf3ff" stroke="#9cc3f5"/>
  <rect x="126" y="178" width="146" height="16" rx="8" fill="#7a591b"/>
  <rect x="126" y="218" width="160" height="12" rx="6" fill="#94a3b8"/>
  <rect x="126" y="250" width="128" height="12" rx="6" fill="#cbd5e1"/>
  <path d="M412 358c84-86 170-86 258 0 46-48 94-72 146-72v148H412z" fill="#9cc3f5"/>
  <circle cx="694" cy="224" r="42" fill="#ffd166"/>
</svg>
